<svg class='ball_svg' version="1.1" xmlns="http://www.w3.org/2000/svg" xmlns:xlink="http://www.w3.org/1999/xlink" x="0px" y="0px"
	 viewBox="0 0 31.997 32" style="enable-background:new 0 0 31.997 32;" xml:space="preserve">
	<path class='path1' d="M17.983,2c0-0.347-0.011-0.691-0.033-1.033c-0.035-0.551-0.511-0.969-1.062-0.934
		s-0.969,0.511-0.934,1.062h0C15.973,1.394,15.983,1.696,15.983,2c0,3.862-1.568,7.356-4.105,9.895C9.339,14.432,5.845,16,1.983,16
		c-0.304,0-0.606-0.01-0.905-0.029c-0.551-0.035-1.027,0.383-1.062,0.934c-0.035,0.551,0.383,1.027,0.934,1.062
		C1.291,17.989,1.636,18,1.983,18C10.808,17.998,17.981,10.826,17.983,2z"/>
	<path class='path2' d="M31.016,14.033C30.674,14.011,30.33,14,29.983,14c-8.826,0.002-15.998,7.174-16,16
		c0,0.347,0.011,0.691,0.033,1.033c0.035,0.551,0.511,0.969,1.062,0.934c0.551-0.035,0.969-0.511,0.934-1.062v0
		c-0.019-0.299-0.029-0.601-0.029-0.905c0-3.862,1.568-7.356,4.105-9.895C22.627,17.568,26.121,16,29.983,16
		c0.304,0,0.606,0.01,0.905,0.029c0.551,0.035,1.027-0.383,1.062-0.934C31.985,14.544,31.567,14.068,31.016,14.033z"/>
	<path class='path3' d="M16.01,32c9-0.002,15.984-7.174,15.986-16C31.995,7.174,24.815,0.002,15.99,0
		C7.164,0.002,0.002,7.174,0,16C0.002,24.826,7.01,31.998,16.01,32z M6.091,6.105C8.63,3.568,12.123,2,15.984,2
		c3.862,0,7.355,1.568,9.894,4.105c2.537,2.539,4.104,6.033,4.105,9.895c0,3.862-1.555,7.356-4.092,9.895
		C23.353,28.432,20.01,30,16.01,30c-4,0-7.37-1.568-9.909-4.105C3.565,23.356,1.99,19.862,1.99,16
		C1.99,12.138,3.554,8.644,6.091,6.105z"/>
</svg>