<svg width="34" height="34" viewBox="0 0 34 34" fill="none" xmlns="http://www.w3.org/2000/svg">
<path d="M33.2795 16.0316C34.0538 17.2861 33.1253 18.8616 31.5777 18.9175C25.9265 19.1244 20.1644 20.4448 14.7319 23.0443L12.9356 24.014C12.9356 24.0216 12.9108 23.9744 17.2839 31.0894C17.6851 31.7404 17.447 32.572 16.7518 32.9481L15.335 33.7132C14.6399 34.0885 13.7502 33.8657 13.3489 33.2147L8.98693 26.1469L8.2789 26.5298C6.88787 27.2806 5.10932 26.8349 4.30603 25.5336L1.03472 20.2331C0.232233 18.9318 0.708558 17.268 2.09959 16.5165L8.55259 13.0309C13.4842 10.0465 17.6632 6.09498 20.7958 1.44661C21.6217 0.220807 23.5439 0.256305 24.3182 1.5108L27.1172 6.04695C28.7254 5.17839 30.7825 5.69423 31.7109 7.19873C32.6393 8.70322 32.0879 10.6269 30.4797 11.4954L33.2795 16.0316Z" fill="#D1E7FF"/>
</svg>
