<svg width="39" height="37" viewBox="0 0 39 37" fill="none" xmlns="http://www.w3.org/2000/svg">
<path d="M33.2795 17.0316C34.0538 18.2861 33.1253 19.8616 31.5777 19.9175C25.9265 20.1244 20.1644 21.4448 14.7319 24.0443L12.9356 25.014C12.9356 25.0216 12.9108 24.9744 17.2839 32.0894C17.6851 32.7404 17.447 33.572 16.7518 33.9481L15.335 34.7132C14.6399 35.0885 13.7502 34.8657 13.3489 34.2147L8.98693 27.1469L8.2789 27.5298C6.88787 28.2806 5.10932 27.8349 4.30603 26.5336L1.03472 21.2331C0.232233 19.9318 0.708558 18.268 2.09959 17.5165L8.55259 14.0309C13.4842 11.0465 17.6632 7.09498 20.7958 2.44661C21.6217 1.22081 23.5439 1.2563 24.3182 2.5108L27.1172 7.04695C28.7254 6.17839 30.7825 6.69423 31.7109 8.19873C32.6393 9.70322 32.0879 11.6269 30.4797 12.4954L33.2795 17.0316Z" fill="#D1E7FF"/>
<path d="M31.7108 8.19873C32.6392 9.70324 32.0878 11.6269 30.4796 12.4955L27.1171 7.04694C28.7253 6.17837 30.7824 6.69422 31.7108 8.19873Z" fill="#D1E7FF"/>
<path d="M24.3181 2.51078C24.7044 3.13719 24.6797 3.91429 24.2522 4.51684C20.8039 9.37751 16.1821 13.7696 10.5297 17.1909L2.96909 21.2746C2.44997 21.5556 2.03904 21.9446 1.75163 22.3939L1.03472 21.2331C0.232233 19.9318 0.708558 18.2679 2.09959 17.5164L8.55259 14.0309C13.4842 11.0465 17.6632 7.09494 20.7958 2.44658C21.6217 1.22078 23.5439 1.25635 24.3181 2.51078Z" fill="#E8F3FF"/>
<path d="M8.55259 14.031L14.7319 24.0443C13.4936 24.7128 9.51541 26.8612 8.2789 27.5299C6.88787 28.2806 5.10932 27.835 4.30603 26.5337L1.03472 21.2332C0.232233 19.9319 0.708558 18.2681 2.09959 17.5166L8.55259 14.031Z" fill="#B9DCFF"/>
<path d="M10.5094 17.2023C2.29841 21.6369 2.84256 21.3283 2.57767 21.5212C2.07882 21.8842 1.35077 21.7452 1.03454 21.2332C0.23205 19.9319 0.708375 18.268 2.09941 17.5165L8.55241 14.031L10.5094 17.2023Z" fill="#D1E7FF"/>
<path d="M14.1118 26.928C11.8145 28.1725 13.5047 27.2567 10.1672 29.0586L8.98688 27.1471L12.9355 25.015L14.1118 26.928Z" fill="#B9DCFF"/>
<path d="M31.5098 11.6313C31.2434 11.9735 30.897 12.2703 30.4796 12.4954L27.1171 7.04696C27.5345 6.82114 27.9826 6.68972 28.4322 6.64441C28.6015 6.91872 31.3621 11.3922 31.5098 11.6313Z" fill="#B9DCFF"/>
<path d="M31.3357 13.0215C33.8562 11.0404 32.9856 7.12262 29.836 6.31066C29.013 6.0985 28.161 6.14263 27.38 6.42889L24.8774 2.25793C23.859 0.560599 21.3333 0.515619 20.2489 2.17053C17.1708 6.86843 13.07 10.8641 8.2015 13.8962C7.92426 14.0685 7.82149 14.4246 7.98554 14.7144C8.01185 14.7608 12.1572 21.6688 12.1846 21.7145C12.3629 22.0116 12.7577 22.1137 13.0669 21.942C13.3758 21.7704 13.4816 21.3903 13.3033 21.093L9.41597 14.6141C14.0582 11.6279 18.1696 7.67449 21.3416 2.83342C21.9089 1.96747 23.2276 1.99435 23.7587 2.87941L32.7197 17.8144C33.2515 18.7006 32.614 19.8118 31.5526 19.8516C25.598 20.0748 19.768 21.5403 14.4377 24.1636C14.415 24.1747 8.37168 27.5326 7.9555 27.7638C6.87521 28.364 5.48902 28.0066 4.86544 26.9671L1.59405 21.5146C0.97039 20.4752 1.34184 19.1414 2.42205 18.5412L6.35933 16.3539C6.66821 16.1823 6.77405 15.8022 6.59571 15.5049C6.41737 15.2076 6.02227 15.1059 5.71346 15.2775L1.77619 17.4648C0.0791766 18.4076 -0.504362 20.5031 0.475415 22.1361L3.74688 27.5885C4.72674 29.2216 6.90452 29.7829 8.60153 28.8401L8.75048 28.7574L12.7895 35.489C13.3696 36.4559 14.6525 36.7871 15.6579 36.2286L17.0746 35.4416C18.0797 34.8832 18.4234 33.6487 17.8431 32.6815L14.9806 27.9106C14.8022 27.6134 14.4072 27.5116 14.0983 27.6832C13.7894 27.8548 13.6836 28.2349 13.8619 28.5321L16.7245 33.303C16.9478 33.6751 16.8156 34.1503 16.4287 34.3651L15.0121 35.1522C14.6253 35.367 14.1315 35.2397 13.9082 34.8675L9.8692 28.1359L15.0406 25.2629C20.101 22.775 25.7307 21.3136 31.603 21.0935C33.6381 21.0171 34.8553 18.8873 33.8384 17.1928L31.3357 13.0215ZM31.1512 8.72914C31.7888 9.79186 31.5598 11.1106 30.6771 11.9239L28.0384 7.52596C29.1952 7.19945 30.5033 7.64924 31.1512 8.72914ZM37.4682 5.96613L35.7971 6.89454C35.488 7.06622 35.0931 6.96422 34.9149 6.66708C34.7365 6.36985 34.8424 5.98974 35.1513 5.81814L36.8224 4.88973C37.1315 4.71805 37.5264 4.82005 37.7046 5.11719C37.883 5.41441 37.7771 5.79452 37.4682 5.96613ZM30.2815 2.42402L30.6891 0.960752C30.7814 0.629194 31.1354 0.432575 31.4802 0.52129C31.8247 0.610162 32.0292 0.950964 31.9368 1.28244L31.5293 2.74571C31.4371 3.07641 31.0839 3.27404 30.7382 3.18517C30.3937 3.0963 30.1892 2.75558 30.2815 2.42402ZM38.7287 12.6022C38.6514 12.8798 38.3904 13.0629 38.1052 13.0629C37.9883 13.0629 38.0701 13.0757 36.4169 12.6495C36.0724 12.5606 35.8679 12.2199 35.9602 11.8883C36.0526 11.5568 36.4067 11.3602 36.7512 11.4489L38.272 11.8409C38.6165 11.9298 38.8211 12.2706 38.7287 12.6022Z" fill="#007FFC"/>
</svg>
