<svg width="81" height="80" viewBox="0 0 81 80" fill="none" xmlns="http://www.w3.org/2000/svg">
<path d="M80.5 0H0.5V80H80.5V0Z" fill="#BC85F3"/>
<path d="M73.7956 6.7041H7.20471V73.2953H73.7956V6.7041Z" fill="#252653"/>
<path fill-rule="evenodd" clip-rule="evenodd" d="M32.6632 49.1828L35.4495 58.4514H43.2758L32.1618 21.1482C32.1411 21.0806 32.0894 21.0338 31.9809 21.0338L22.7847 21.0078C22.428 21.0078 22.4177 21.1951 22.4487 21.5487C22.5624 22.8334 22.5004 23.5512 22.2368 24.555L12.3841 58.4566L19.8072 58.4462L22.1179 49.1776L32.6632 49.1828ZM31.3296 42.4629H23.71L27.4061 27.4469L31.3296 42.4629ZM52.4048 46.1713L66.7702 46.1921C67.6749 45.0271 67.8403 42.8373 67.8144 41.4018C67.7162 35.5764 63.8806 30.0007 56.9538 29.9643C45.3228 29.8967 43.1207 44.6942 47.0804 53.2294C48.3262 55.9132 50.8281 57.6192 53.7643 58.4306C55.1031 58.7999 56.5247 58.9871 57.9618 58.9923C60.8049 59.0027 63.6945 58.311 66.0155 56.9795C66.0517 56.9587 66.1137 56.9587 66.1189 56.917V56.7506L66.1137 51.9291C66.1137 51.7106 65.9483 51.5858 65.7002 51.6638C62.764 52.5532 52.8183 55.3931 52.3582 46.4418C52.3531 46.3742 52.3376 46.1713 52.4048 46.1713ZM59.6056 41.3394H52.291C52.3272 37.4281 54.1106 35.2071 56.8659 35.1967C59.3678 35.1863 60.96 36.934 61.0375 41.2458C61.0375 41.4434 61.0375 41.3394 61.0375 41.3394H59.6056Z" fill="#BC85F3"/>
</svg>
