<svg width="81" height="80" viewBox="0 0 81 80" fill="none" xmlns="http://www.w3.org/2000/svg">
<path d="M80.5 0H0.5V80H80.5V0Z" fill="#FF7C00"/>
<path d="M73.7956 6.7041H7.20471V73.2953H73.7956V6.7041Z" fill="#261300"/>
<path d="M60.4588 32.0449H54.1419C53.9792 32.0449 53.8473 32.1777 53.8473 32.3414V58.4359C53.8473 58.5997 53.9792 58.7324 54.1419 58.7324H60.4588C60.6215 58.7324 60.7535 58.5997 60.7535 58.4359V32.3414C60.7535 32.1777 60.6215 32.0449 60.4588 32.0449Z" fill="#FF7C00"/>
<path d="M57.3001 28.5183C59.3271 28.5183 60.9703 26.9372 60.9703 24.9867C60.9703 23.0362 59.3271 21.4551 57.3001 21.4551C55.2731 21.4551 53.6299 23.0362 53.6299 24.9867C53.6299 26.9372 55.2731 28.5183 57.3001 28.5183Z" fill="#FF7C00"/>
<path fill-rule="evenodd" clip-rule="evenodd" d="M40.195 49.4013L42.7848 58.0301C42.9192 58.5399 43.1828 58.6647 43.5395 58.6595H50.1717C50.6835 58.6647 50.7197 58.5086 50.6421 58.1654L39.6884 21.4031C39.6677 21.3355 39.616 21.2887 39.5127 21.2887L30.3268 21.2627C29.965 21.2627 29.9598 21.4499 29.9908 21.8036C30.1045 23.0831 30.0425 23.8009 29.7737 24.8047L20.0761 58.1862C19.9727 58.5034 19.9986 58.6595 20.4121 58.6647L26.6721 58.6595C27.3338 58.6387 27.37 58.4566 27.4837 58.1238L29.6548 49.4013H40.195ZM38.8562 42.6917H31.2521L34.9378 27.6914L38.8562 42.6917Z" fill="#FF7C00"/>
</svg>
