<svg width="55" height="80" viewBox="0 0 55 80" fill="none" xmlns="http://www.w3.org/2000/svg">
<path d="M14.1666 79.9997C21.5266 79.9997 27.4999 74.0263 27.4999 66.6663V53.333H14.1666C6.80659 53.333 0.833252 59.3063 0.833252 66.6663C0.833252 74.0263 6.80659 79.9997 14.1666 79.9997Z" fill="#0ACF83"/>
<path d="M0.833252 40.0003C0.833252 32.6403 6.80659 26.667 14.1666 26.667H27.4999V53.3337H14.1666C6.80659 53.3337 0.833252 47.3603 0.833252 40.0003Z" fill="#A259FF"/>
<path d="M0.833252 13.3333C0.833252 5.97333 6.80659 0 14.1666 0H27.4999V26.6667H14.1666C6.80659 26.6667 0.833252 20.6933 0.833252 13.3333Z" fill="#F24E1E"/>
<path d="M27.4999 0H40.8332C48.1932 0 54.1665 5.97333 54.1665 13.3333C54.1665 20.6933 48.1932 26.6667 40.8332 26.6667H27.4999V0Z" fill="#FF7262"/>
<path d="M54.1667 40.0003C54.1667 47.3603 48.1933 53.3337 40.8333 53.3337C33.4733 53.3337 27.5 47.3603 27.5 40.0003C27.5 32.6403 33.4733 26.667 40.8333 26.667C48.1933 26.667 54.1667 32.6403 54.1667 40.0003Z" fill="#1ABCFE"/>
</svg>
