<svg width="27" height="26" viewBox="0 0 27 26" fill="none" xmlns="http://www.w3.org/2000/svg">
<path d="M7.41471 25.6211C6.78429 26.1123 6.14017 26.1259 5.48235 25.662C4.82452 25.1982 4.60525 24.5843 4.82452 23.8203L7.16802 16.2485L1.20649 12.0329C0.54867 11.5691 0.350226 10.9551 0.611163 10.1911C0.871003 9.42715 1.39836 9.04516 2.19323 9.04516H9.55264L11.9372 1.18692C12.0743 0.804923 12.287 0.511331 12.5753 0.306144C12.8626 0.102048 13.1707 0 13.4996 0C13.8285 0 14.1366 0.102048 14.4238 0.306144C14.7122 0.511331 14.9249 0.804923 15.0619 1.18692L17.4465 9.04516H24.8059C25.6008 9.04516 26.1287 9.42715 26.3896 10.1911C26.6495 10.9551 26.4505 11.5691 25.7927 12.0329L19.8311 16.2485L22.1746 23.8203C22.3939 24.5843 22.1746 25.1982 21.5168 25.662C20.859 26.1259 20.2149 26.1123 19.5844 25.6211L13.4996 20.9962L7.41471 25.6211Z" fill="#070707"/>
</svg>
